<?xml version="1.0" encoding="UTF-8"?>
<svg xmlns="http://www.w3.org/2000/svg" viewBox="0 0 600 800" width="600" height="800">
  <defs>
    <linearGradient id="bg" x1="0%" y1="0%" x2="100%" y2="100%">
      <stop offset="0%" stop-color="#080d14" />
      <stop offset="100%" stop-color="#0f172a" />
    </linearGradient>
    <linearGradient id="glow" x1="0%" y1="0%" x2="0%" y2="100%">
      <stop offset="0%" stop-color="#38bdf8" stop-opacity="0.25" />
      <stop offset="100%" stop-color="#38bdf8" stop-opacity="0" />
    </linearGradient>
  </defs>
  <rect width="600" height="800" fill="url(#bg)"/>
  <circle cx="300" cy="280" r="260" fill="url(#glow)"/>
  <rect x="24" y="24" width="552" height="752" rx="16" fill="none" stroke="rgba(255,255,255,0.08)" stroke-width="1.5"/>
  <rect x="32" y="32" width="536" height="736" rx="12" fill="none" stroke="rgba(255,255,255,0.04)" stroke-width="1"/>
  <rect x="48" y="52" width="18" height="18" rx="4" fill="#38bdf8"/>
  <text x="76" y="66" font-family="sans-serif" font-size="12" font-weight="700" fill="#38bdf8" letter-spacing="2">METAFUSION ARCHIVE</text>
  <text x="552" y="66" text-anchor="end" font-family="monospace" font-size="11" font-weight="600" fill="rgba(255,255,255,0.4)">REF: MF-MUSIC-12</text>
  <rect x="48" y="100" width="280" height="28" rx="14" fill="rgba(255,255,255,0.06)" stroke="rgba(255,255,255,0.12)" stroke-width="1"/>
  <circle cx="62" cy="114" r="4" fill="#38bdf8"/>
  <text x="74" y="118" font-family="monospace" font-size="11" font-weight="600" fill="#e2e8f0">HI-RES 24BIT/96KHZ · COMMONS</text>
  <g transform="translate(300, 300)">
    <circle cx="0" cy="0" r="140" fill="none" stroke="rgba(255,255,255,0.06)" stroke-width="1" stroke-dasharray="4 6"/>
    <circle cx="0" cy="0" r="110" fill="none" stroke="#38bdf8" stroke-opacity="0.3" stroke-width="1.5"/>
    <circle cx="0" cy="0" r="80" fill="rgba(0,0,0,0.3)" stroke="rgba(255,255,255,0.08)" stroke-width="1"/>
    <circle cx="0" cy="0" r="28" fill="#080d14" stroke="#38bdf8" stroke-width="2"/>
    <circle cx="0" cy="0" r="8" fill="#38bdf8"/>
  </g>
  <text x="48" y="520" font-family="sans-serif" font-size="40" font-weight="700" fill="#ffffff">12</text>
  <text x="48" y="556" font-family="monospace" font-size="16" font-weight="600" fill="rgba(255,255,255,0.5)">RYUICHI SAKAMOTO</text>
  <line x1="48" y1="585" x2="552" y2="585" stroke="rgba(255,255,255,0.1)" stroke-width="1"/>
  <line x1="48" y1="585" x2="160" y2="585" stroke="#38bdf8" stroke-width="2"/>
  <text x="48" y="625" font-family="sans-serif" font-size="14" font-weight="400" fill="rgba(255,255,255,0.75)">坂本龙一 极简主义钢琴与环境录音素描日记</text>
  <g transform="translate(48, 690)">
    <rect x="0" y="0" width="504" height="42" rx="8" fill="rgba(255,255,255,0.03)" stroke="rgba(255,255,255,0.06)" stroke-width="1"/>
    <text x="16" y="26" font-family="monospace" font-size="11" font-weight="600" fill="rgba(255,255,255,0.4)">LABEL / CATALOG:</text>
    <text x="160" y="26" font-family="sans-serif" font-size="12" font-weight="600" fill="#f1f5f9">COMMONS / RZCM-77656</text>
  </g>
</svg>